<svg width="52" height="52" viewBox="0 0 52 52" fill="none" xmlns="http://www.w3.org/2000/svg">
<path d="M32.5004 5.20001V13C32.5004 14.436 33.6645 15.6 35.1004 15.6H42.9004M18.2004 15.6H23.4004M18.2004 23.4H33.8004M18.2004 31.2H33.8004M39.0004 9.10001C37.8433 8.06465 36.6425 6.83666 35.8844 6.03912C35.38 5.5084 34.683 5.20001 33.9509 5.20001H14.2998C11.4279 5.20001 9.09983 7.52812 9.09981 10.4L9.09961 41.5999C9.09959 44.4717 11.4277 46.7999 14.2996 46.7999L37.6997 46.8C40.5715 46.8 42.8996 44.472 42.8997 41.6001L42.9004 14.0353C42.9004 13.3705 42.6468 12.7314 42.1854 12.2528C41.3321 11.3677 39.9073 9.91147 39.0004 9.10001Z" stroke="#2E65F3" stroke-width="4" stroke-linecap="round" stroke-linejoin="round"/>
</svg>
