<svg width="20" height="16" viewBox="0 0 20 16" fill="none" xmlns="http://www.w3.org/2000/svg">
<path d="M1 14.207C1 11.454 3.25306 9.22222 7.85714 9.22222C12.4612 9.22222 14.7143 11.454 14.7143 14.207C14.7143 14.645 14.4013 15 14.0151 15H1.69916C1.31302 15 1 14.645 1 14.207Z" fill="#A3AED0"/>
<path d="M10.4286 3.625C10.4286 5.07475 9.2773 6.25 7.85714 6.25C6.43698 6.25 5.28571 5.07475 5.28571 3.625C5.28571 2.17525 6.43698 1 7.85714 1C9.2773 1 10.4286 2.17525 10.4286 3.625Z" fill="#A3AED0"/>
<path d="M16.75 9.61328C17.9381 10.5195 19 12.8011 19 14.207C19 14.645 18.687 15 18.3008 15H17.875M13.375 5.89882C14.1436 5.44495 14.6607 4.59662 14.6607 3.625C14.6607 2.65338 14.1436 1.80505 13.375 1.35118M1.69916 15H14.0151C14.4013 15 14.7143 14.645 14.7143 14.207C14.7143 11.454 12.4612 9.22222 7.85714 9.22222C3.25306 9.22222 1 11.454 1 14.207C1 14.645 1.31302 15 1.69916 15ZM10.4286 3.625C10.4286 5.07475 9.2773 6.25 7.85714 6.25C6.43698 6.25 5.28571 5.07475 5.28571 3.625C5.28571 2.17525 6.43698 1 7.85714 1C9.2773 1 10.4286 2.17525 10.4286 3.625Z" stroke="#A3AED0" stroke-width="2" stroke-linecap="round"/>
</svg>
