<svg width="20" height="20" viewBox="0 0 20 20" fill="none" xmlns="http://www.w3.org/2000/svg">
<path d="M4.25476 15.7452C3.53569 15.0262 4.01262 13.5165 3.64662 12.632C3.26722 11.715 1.875 10.9769 1.875 9.99997C1.875 9.02301 3.26722 8.285 3.64663 7.36803C4.01263 6.48346 3.5357 4.97382 4.25476 4.25476C4.97382 3.53569 6.48346 4.01262 7.36804 3.64662C8.28502 3.26722 9.02305 1.875 10 1.875C10.977 1.875 11.715 3.26722 12.632 3.64663C13.5165 4.01263 15.0262 3.5357 15.7452 4.25476C16.4643 4.97382 15.9874 6.48346 16.3534 7.36804C16.7328 8.28502 18.125 9.02305 18.125 10C18.125 10.977 16.7328 11.715 16.3534 12.632C15.9874 13.5165 16.4643 15.0262 15.7452 15.7452C15.0262 16.4643 13.5165 15.9874 12.632 16.3534C11.715 16.7328 10.9769 18.125 9.99997 18.125C9.02301 18.125 8.285 16.7328 7.36803 16.3534C6.48346 15.9874 4.97382 16.4643 4.25476 15.7452Z" stroke="#A3AED0" stroke-width="1.25" stroke-linecap="round" stroke-linejoin="round"/>
<path d="M10 15C10.5178 15 10.9375 14.5803 10.9375 14.0625C10.9375 13.5447 10.5178 13.125 10 13.125C9.48223 13.125 9.0625 13.5447 9.0625 14.0625C9.0625 14.5803 9.48223 15 10 15Z" fill="#A3AED0"/>
<path d="M10 11.2504V10.6254C10.4326 10.6254 10.8556 10.4971 11.2153 10.2567C11.575 10.0163 11.8554 9.67469 12.021 9.27498C12.1866 8.87527 12.2299 8.43543 12.1455 8.0111C12.0611 7.58677 11.8527 7.19699 11.5468 6.89106C11.2409 6.58514 10.8511 6.3768 10.4268 6.29239C10.0024 6.20799 9.56259 6.25131 9.16288 6.41687C8.76317 6.58244 8.42153 6.86282 8.18116 7.22255C7.9408 7.58228 7.8125 8.00521 7.8125 8.43786" stroke="#A3AED0" stroke-width="1.25" stroke-linecap="round" stroke-linejoin="round"/>
</svg>
