<svg width="18" height="18" viewBox="0 0 18 18" fill="none" xmlns="http://www.w3.org/2000/svg">
<path d="M4.0498 14.4C4.39568 14.0126 6.01559 12.23 6.49031 12.23H11.5096C12.1975 12.23 13.6018 13.7077 13.9498 14.2286M16.1998 9C16.1998 12.9765 12.9763 16.2 8.9998 16.2C5.02335 16.2 1.7998 12.9765 1.7998 9C1.7998 5.02355 5.02335 1.8 8.9998 1.8C12.9763 1.8 16.1998 5.02355 16.1998 9ZM11.5789 6.54597C11.5789 5.17234 10.4193 4.05 9.00002 4.05C7.58074 4.05 6.42111 5.17234 6.42111 6.54597C6.42111 7.9196 7.58074 9.04194 9.00002 9.04194C10.4193 9.04194 11.5789 7.9196 11.5789 6.54597Z" stroke="#A3AED0"/>
</svg>
